<svg version="1.1" xmlns="http://www.w3.org/2000/svg" viewBox="0 0 400 75"> <style type="text/css"> .st0{fill-rule:evenodd;clip-rule:evenodd;fill:#2675B5;} .st1{fill:#484D56;} .st2{fill:#353D44;} </style> <g> <g> <g> <path class="st0" d="M35.8,2.7c-18.7,0-33.6,15.2-33.6,34c0,11.1,4.8,21,13.8,27.2V33.3c0,0,0.2-0.9,20.5-0.9S57,33.3,57,33.3 v30.6c8-6.2,13.1-16.1,13.1-27.2C70.1,17.9,54.5,2.7,35.8,2.7z M57,29.9c0,0-10.4-0.9-20.6-0.9C26.3,29,16,29.9,16,29.9V17.1 c0,0,0-0.9,9-1.4V19h6v-3.5c1,0,3.1,0,5,0c1.9,0,4,0,5,0V19h8v-3.3c8,0.5,8,1.4,8,1.4V29.9z"/> <path class="st0" d="M36.5,54.6c-2.3,0-4.5,1.9-4.5,4.3v11.6c1,0.2,3.1,0.3,4.5,0.3c1.4,0,2.5-0.1,4.5-0.3V58.8 C41,56.5,38.8,54.6,36.5,54.6z"/> </g> </g> <path class="st1" d="M112,57c-2.6,0.5-6.6,1.1-10.1,1.1c-11.2,0-13.6-7-13.6-19.2c0-12.3,2.2-19.4,13.6-19.4 c3.8,0,7.7,0.6,10.1,1.1l-0.2,2.9c-2.4-0.4-6.7-1-9.7-1c-9.1,0-10.4,5.7-10.4,16.4c0,10.6,1.4,16.1,10.5,16.1c3.1,0,7-0.5,9.7-1 L112,57z"/> <path class="st1" d="M138.4,52.9c0.2,1.7,1.8,2.2,3.6,2.5l-0.2,2.7c-2.7,0-4.8-0.6-6.3-2.2c0,0-5.3,2.3-10.5,2.3 c-4.9,0-7.7-2.8-7.7-8.4c0-5.1,2.6-7.6,8.2-8.2l9.5-0.9v-2.6c0-4.2-1.9-5.9-5.5-5.9c-4,0-10.6,0.8-10.6,0.8l-0.2-2.7 c0,0,6.1-1.2,10.8-1.2c6.1,0,8.7,3,8.7,8.9V52.9z M126,44.1c-3.7,0.3-5.1,2.1-5.1,5.5c0,3.6,1.6,5.6,4.6,5.6c4.5,0,9.6-2,9.6-2 V43.2L126,44.1z"/> <path class="st1" d="M166.9,32.9c0,0-6-0.9-9.7-0.9c-3.5,0-6.6,1-6.6,4.8c0,2.9,1.4,3.8,7.5,4.8c7.2,1.2,9.9,2.5,9.9,7.9 c0,6.6-4.1,8.7-10.9,8.7c-3.4,0-9.6-1-9.6-1l0.2-3c0,0,6.3,1,9.2,1c4.8,0,7.7-1.1,7.7-5.5c0-3.4-1.7-4.1-8-5.1 c-6.5-1-9.5-2.2-9.5-7.7c0-6.1,5.1-7.9,10-7.9c4.2,0,10,1,10,1L166.9,32.9z"/> <path class="st1" d="M180.2,32.1v14c0,7.1,0.5,8.9,4.5,8.9c1.6,0,5.2-0.4,5.2-0.4l0.2,2.9c0,0-3.7,0.6-5.7,0.6 c-5.6,0-7.7-2.1-7.7-10.3V32.1h-4.2v-3h4.2v-9.6h3.4v9.6h9.5v3H180.2z"/> <path class="st1" d="M197,19.5h3.3v38.6H197V19.5z"/> <path class="st1" d="M229.4,54.5l0.1,2.7c0,0-6.3,0.8-10.7,0.8C210.5,58,208,53,208,43.6c0-10.8,4.7-14.7,11.5-14.7 c7.2,0,11,3.9,11,13.3l-0.1,2.7h-19c0,6.6,1.9,10.1,7.8,10.1C223.2,55,229.4,54.5,229.4,54.5z M227.1,42.1c0-7.6-2.4-10.2-7.7-10.2 c-5.1,0-8.1,2.8-8.1,10.2H227.1z"/> <path class="st1" d="M236.7,64c0-3.6,1.7-5.1,4.8-7.4c-1-0.6-1.5-2.2-1.5-4c0-1,1.9-4.6,1.9-4.6c-2.5-1.1-4.8-3.4-4.8-8.9 c0-7.2,4.2-10,10.7-10c3.1,0,6.2,0.8,6.2,0.8l8.6-0.2v3.1l-5.9-0.1c1.2,1.2,2.1,2.9,2.1,6.4c0,7.5-3.7,9.9-11.1,9.9 c-0.5,0-2.4-0.1-3-0.2c0,0-1.2,2.9-1.2,3.7c0,2.5,0.5,2.8,7.5,2.9c8,0,11,1.4,11,8.6c0,6.6-4.4,9.3-12.9,9.3 C239.5,73.1,236.7,70.9,236.7,64z M244,58.1c-2.8,2-3.7,3.1-3.7,5.7c0,4.6,1.6,6.3,8.8,6.3c6.5,0,9.3-1.8,9.3-6.1 c0-5-2.1-5.5-7.7-5.5C248.4,58.4,244,58.1,244,58.1z M255.1,39.1c0-5.1-1.9-7.1-7.4-7.1c-5,0-7.1,1.9-7.1,7.1 c0,5.1,2.1,6.9,7.1,6.9C253.2,46,255.1,44.2,255.1,39.1z"/> <path class="st1" d="M287.3,52.9c0.2,1.7,1.8,2.2,3.6,2.5l-0.2,2.7c-2.7,0-4.8-0.6-6.3-2.2c0,0-5.3,2.3-10.5,2.3 c-4.9,0-7.7-2.8-7.7-8.4c0-5.1,2.6-7.6,8.2-8.2l9.5-0.9v-2.6c0-4.2-1.9-5.9-5.5-5.9c-4,0-10.6,0.8-10.6,0.8l-0.2-2.7 c0,0,6.1-1.2,10.8-1.2c6.1,0,8.7,3,8.7,8.9V52.9z M274.9,44.1c-3.7,0.3-5.1,2.1-5.1,5.5c0,3.6,1.6,5.6,4.6,5.6c4.5,0,9.6-2,9.6-2 V43.2L274.9,44.1z"/> <path class="st2" d="M357.2,19.9h7.8v38.3h-7.8V19.9z"/> <path class="st2" d="M369.8,19.9h28.1v6.9h-10.1v31.4h-7.8V26.8h-10.2V19.9z"/> <path class="st1" d="M336.9,54.6l0.1,2.7c0,0-6.3,0.8-10.7,0.8c-8.3-0.1-10.8-5.1-10.8-14.4c0-10.8,4.7-14.7,11.5-14.7 c7.2,0,11,3.9,11,13.3l-0.1,2.7h-19c0,6.6,1.9,10.1,7.8,10.1C330.8,55.1,336.9,54.6,336.9,54.6z M334.7,42.2 c0-7.6-2.4-10.2-7.7-10.2c-5.1,0-8.1,2.8-8.1,10.2H334.7z"/> <path class="st1" d="M300.4,32.1v14c0,7.1,0.5,8.9,4.5,8.9c1.6,0,5.2-0.4,5.2-0.4l0.2,2.9c0,0-3.7,0.6-5.7,0.6 c-5.6,0-7.7-2.1-7.7-10.3V32.1h-4.2v-3h4.2v-9.6h3.4v9.6h9.5v3H300.4z"/> </g> </svg>
