<svg id="Layer_7" data-name="Layer 7" xmlns="http://www.w3.org/2000/svg" viewBox="0 0 995.7 995.7"><defs><style>.cls-1{fill:#284049;}.cls-2{fill:#f7ed74;}.cls-3{fill:#e85454;}.cls-4{fill:#aa211a;}</style></defs><title>YorDev Logo final</title><circle class="cls-1" cx="497.85" cy="497.85" r="497.85"/><path class="cls-2" d="M940,541.89c0,222.76-180.59,403.35-403.35,403.35q-15.53,0-30.74-1.16c-146-11-307.41-92.71-321.26-231.48-10-100.62,103.7-234.33,226.73-241.43,76.71-4.43,163.53,62.25,248.46,61.15,64.83-.84,150.69-10.87,237-115.9,7.35-8.95,20.32-9.06,23.86,2A402.92,402.92,0,0,1,940,541.89Z" transform="translate(-14.15 -14.15)"/><path class="cls-3" d="M204.86,324.89s-53.16,36-113.72,33.68A11.29,11.29,0,0,0,79.65,368c-6.29,35.74,3.66,71.29,153,86.06" transform="translate(-14.15 -14.15)"/><circle class="cls-2" cx="365.78" cy="340.59" r="177.58"/><path class="cls-4" d="M291.44,268.73s.76-5.84,6.4-1.89,39.14,47,39.14,47,1.88,5.08-1.32,6-14.49-2.07-14.49-2.07l4.89,11.67-12.79,7-6.77-13.55s-9.41,17.31-15.06,12Z" transform="translate(-14.15 -14.15)"/><path class="cls-4" d="M484,589.13c-2.49-1.22-4.57,0-4.57,2.85V641.5a8.89,8.89,0,0,0,4.57,7.27L637.21,722c2.54,1.21,2.49,3-.1,4.11L484.16,788a8.17,8.17,0,0,0-4.72,7v47.14c0,2.79,2.08,4.11,4.62,3L705.23,741.83a8.68,8.68,0,0,0,4.62-7.22V705.35a8.86,8.86,0,0,0-4.57-7.31Z" transform="translate(-14.15 -14.15)"/></svg>