<svg id="Layer_3" data-name="Layer 3" xmlns="http://www.w3.org/2000/svg" viewBox="0 0 1010.09 598.72"><defs><style>.cls-1{fill:#aa211a;}.cls-2{fill:none;stroke:#aa211a;stroke-miterlimit:10;stroke-width:30px;}</style></defs><title>YorDev Logo Text final</title><path class="cls-1" d="M509.06,228.06c-4.94-2.43-9,.09-9,5.59V347.53c0,5.5,4.06,11.94,9,14.31L855.22,527.26c5,2.37,4.85,6-.25,8.06L509.36,675.09c-5.1,2.06-9.27,8.25-9.27,13.75V797.37c0,5.5,4.07,8.09,9.06,5.77L1007.8,570.61c5-2.33,9.07-8.73,9.07-14.23V488c0-5.5-4-12-9-14.42Z" transform="translate(-6.78 -208.65)"/><path class="cls-1" d="M459.43,223.72c5.5,0,8.07,4.07,5.71,9L326.68,524.17c-2.37,5-6.23,13.1-8.59,18.07L248.21,689.33l-8.58,18.07-43.21,90.93c-2.36,5-8.79,9-14.29,9H45.18c-5.5,0-8.07-4.07-5.71-9l121.68-256.1,8.58-18.06,69.9-147.09L248.21,359l60-126.27c2.36-5,8.79-9,14.29-9Z" transform="translate(-6.78 -208.65)"/><path class="cls-2" d="M239.63,359c2.36,5,2.36,13.09,0,18.06l-69.9,147.09c-2.36,5-6.22,5-8.58,0L22.66,232.68c-2.36-5,.21-9,5.71-9H165.31c5.5,0,11.93,4.06,14.29,9Z" transform="translate(-6.78 -208.65)"/></svg>